<?xml version="1.0" encoding="UTF-8"?>
<svg id="Ebene_2" data-name="Ebene 2" xmlns="http://www.w3.org/2000/svg" viewBox="0 0 83.82 78.39">
  <g id="Ebene_1-2" data-name="Ebene 1">
    <path d="M51.81.3c1.13.2,1.58,2.53,3.9,1.56v10.93h19.78v4.17s3.68.24,3.68.24l-.04,2.88,3.83.08.85,1.23v47.9s-.85,1.23-.85,1.23l-3.31.07c.36,1.76-.41,3.38-.54,4.98-.1,1.19.97,2.11-.23,2.83H7.83v-4.17s-4.17,0-4.17,0v-3.65c-.31-.3-3.7.79-3.64-1.3L0,21.88c-.07-2.9,1.98-.69,3.17-1.49l1.06-3.38c3.64.2,4.66-.67,3.6-4.21h20.82V3.42h4.17s0-3.12,0-3.12c5.68.7,13.6-.94,19,0ZM51.55,4.98h-18.74v7.81h18.74c-.84-2.33-.84-5.46,0-7.81ZM75.49,17.48H8.35v4.17s-4.16,0-4.16,0c-.2.56.52,1.14.52,1.3v19.26c0,.16-.66.4-.52.78h27.58v-4.69h20.3v4.69h26.28c.16,0,.4.66.78.52v-21.86h-3.65s0-4.16,0-4.16ZM47.39,42.47h-10.93v8.07c0,.16-.66.4-.52.78h11.97c.14-.38-.52-.62-.52-.78v-8.07ZM31.77,47.15H4.71v23.43h3.64s0,3.12,0,3.12h67.13v-4.17s3.64.52,3.64.52v-22.91h-27.06v8.33h-20.3v-8.33Z"/>
  </g>
</svg>