<?xml version="1.0" encoding="UTF-8"?>
<svg id="Ebene_2" data-name="Ebene 2" xmlns="http://www.w3.org/2000/svg" viewBox="0 0 85.88 92.17">
  <g id="Ebene_1-2" data-name="Ebene 1">
    <g>
      <path d="M26.03,0v15.1l2.91.49c-.44,2.53.93,4.31.74,6.8l-4.46-.49.23-5.95c-.42-1.35-2.08-.17-3.05-.86l-.52,7.29h-3.13s.29,3.67.29,3.67l-3.91.51-.87,2.52-4.83.12-.56,3.07,6.76-.52.11,1.46c.58-.42,2.86,2.31,2.93,2.51.34.95-.03,2.29.09,3.32l3.09.58.3,4.64,2.85-.53-.52-4.68,3.68-.23c1.07-.75-.38-3.66,1.76-5.01.71-.45,1.42-.3,1.95-.54s.29-.92,1.17-1.03c1.41-.17,2.97.39,4.42-.42l.56.98.52-3.64-6.24-.51-.05-2.04-2.6-.93c-.78-1.13,0-2.91.8-3.87l2.32.12.07,3.05c2.69.15,5.1,1.72,7.78,1.06v3.12h7.29c.83,5.53-3.42,4.03-7.29,4.16v3.65s-6.98-.47-6.98-.47l-.84,2.53-3.37.52c.09,2.83-1,4.27-3.9,4.2l.53,17.17h-4.17v-14.58l-3.12.52-.53-6.76c-3-.1-4.27-1.46-3.64-4.68l-8.33-.53.36-1.3-.69-.71-5.92-.37v-4.39s6.26.52,6.26.52c-.96-6.45,4.29-1.71,8.02-3.59.21-2.69,1.13-3.85,3.87-3.78l.59-6.69,3.12.52V0h4.16Z"/>
      <path d="M66.1,35.92v8.33h4.17c-1.89,4.5,3.84,3.58,6.76,3.64l.52,4.17h8.33v4.69h-8.85c-.12,1.15,1.21,3.13.03,3.93l-6.8.24.53,3.64h-4.17s0,7.81,0,7.81c-1.27-.09-1.91-.3-2.33.99l-1.32-.46c-.37,2.55.83,18.9-.87,19.28h-2.98c-1-.27.1-16.64-.31-19.03s-1.83.72-3.41-1.27l.28-7.31-1.85.48c-.29-1.52-1.96-.37-3.3-1.05l-.05-3.59c-2.84.41-7.79,1.88-6.76-2.6l1.56-.27-7.21-.85-.59-4.09h8.07c1.13.99,1.15,2.29.78,3.63.72.31,4.54.64,4.71.8.54.5.43,1.51,1.33,2.28.73.62,2.35,1.04,3.33,1.1l-.53,1.03h2.09c-.66,2.17.89,2,1.27,2.62.85,1.38,1.31,7.06.81,8.84,4.36.45,3.6-5.84,3.64-8.85l3.15-.24.45-.58c-1.32-2.18,1.39-2.39,2.89-3.9.93-.93,1.44-2.48,3.25-3.08,2.32-.77,2.44.93,2.79-3.31l-6.81-2.15-.51-2.36-1.03.53c.58-2.52-2.52-1.53-4.11-2.14-.19-3.66-2.68-11.25,3.07-10.88Z"/>
      <path d="M58.3,15.62h4.68s-.52,21.87-.52,21.87h-3.13s0,7.55,0,7.55c0,2.18-3.77,1.85-5.2,1.3-.36,3.34.54,3.51-2.62,4.81-1.41.58-6.21,1.88-6.12-.49.06-1.78,1.97-1.38,2.39-1.86.64-.74-.98-2.09,2.18-.9v-2.09c2.25.64,1.98-.92,2.9-1.5.71-.45,2.24-.53,2.61-1.08.54-.78-.98-5.44.15-7.01l2.66-.3V15.62Z"/>
    </g>
  </g>
</svg>