<?xml version="1.0" encoding="UTF-8"?>
<svg id="Ebene_2" data-name="Ebene 2" xmlns="http://www.w3.org/2000/svg" viewBox="0 0 58.1 91.22">
  <g id="Ebene_1-2" data-name="Ebene 1">
    <path d="M32.79,0v3.65s4.18.86,4.18.86l-.51,20.25-3.6.3c-1.26,1.61.38,3.58-.85,4.61h-10.67v19.78l4.44.48.73,6.58,4.71.23-1.04,1.04,1.05.78c-1.6.4-1.01,1.42-1.05,2.86h7.29v-4.69h11.97v4.69s4.17,0,4.17,0v4.17s4.16,0,4.16,0c.82,5.41-.14,10.69,0,16.14l-3.94.48-.22,4.2h-4.17s-.3,4.22-.3,4.22c-7.76.81-15.93.82-23.68-.3l-.43-3.68-4.21-.24v-3.65s-3.93-.48-3.93-.48l-.29-6.75-2.81-1.1-.51,1.04c-.18-.26-.78-.64-.78-.78v-8.59h-4.16v-9.37h-4.16v-13.54l-4.16.52V9.37h4.17s0-5.73,0-5.73h4.17s0-3.64,0-3.64h24.46ZM40.59,71.32c-1.56-.02-3.13.01-4.69,0v-5.21s-6.25,0-6.25,0v-4.17s-4.16,0-4.16,0v-4.69s-4.16,0-4.16,0l-.52-7.29h-4.17s0-11.97,0-11.97c-.65.66-4.16.84-4.16-.26v-8.07h4.68s-.52-4.69-.52-4.69h5.21s0-20.3,0-20.3h-13.01v6.25s-4.16-.52-4.16-.52v32.28l3.32-.48.85.74v13.27h4.16v8.59c.65,1.46,4.36.45,4.69.78v5.73s3.64,0,3.64,0v10.41h4.17s0,4.16,0,4.16h19.26v-4.17s-4.17,0-4.17,0c0-3.46,0-6.95,0-10.41,1.56.02,3.13-.01,4.69,0l-.52,6.24,4.6.08c.85,1.41.5,2.61.08,4.09h4.16s0-15.09,0-15.09l-4.17.52c-.41-.4.78-4.97-.78-5.73h-8.07c.17,3.27,0,6.6,0,9.89ZM32.27,4.69h-5.72v20.3h5.72V4.69Z"/>
  </g>
</svg>