<?xml version="1.0" encoding="UTF-8"?>
<svg id="Ebene_2" data-name="Ebene 2" xmlns="http://www.w3.org/2000/svg" viewBox="0 0 80.14 81.23">
  <g id="Ebene_1-2" data-name="Ebene 1">
    <path d="M4.16,20.58c.36-1.16,3.13-.74,4.17-.78l.22-7.32,4.38-.56.59-4.1,6.18-.06c.58-6.21,4.42-2.9,8.92-3.58l.34-4.18h21.52s.48,3.95.48,3.95l9.4.23v3.65s6.95.07,6.95.07c1.45.48.9,3.02.33,4.09,1.57.16,3.57-.58,4.68.79v7.55h4.16v7.81h3.64v24.47l-3.3.08-.86.7v7.55h-4.16v7.81l-3.55.1-1.43,4.53c-2.25-.92-4.18-.18-6.44.08l-.09,3.56-9.76.65-.07,3.57h-21.34l.02-3.29c-.11-.34-1.18-.88-1.32-.88h-8.07l.52-4.16-6.76.52-.58-4.63-4.63-.06v-7.81h-4.16v-8.33H0v-24.47h4.16v-7.55ZM37.99,4.18l-4.89.46-.87,3.15-2.84.03c-.52,3.76,2.36,11.23-4.18,8.88l-.22-6.5-1.31-.31c-1.39,3.17-2.51,3.52-5.99,3.13l-.48,3.94-3.68.23-.52,3.12h6.77c-.63-5.59,5.46-6.84,4.68,0h13.53V4.18ZM42.67,4.18v16.14h13.01l.07-4.09,4.61-.6v4.69s7.8,0,7.8,0l-.24-3.17c-2.19-.22-5.45-1.51-3.92-4.11l-5.72-.27c-1.97-1.17.1-3.16-1.13-4.87l-2-.08v8.85l-4.68.52V7.82l-3.18-.73-.47-2.92h-4.16ZM19.78,25h-11.45l-.07,6.96c-.43,1.31-2.45.79-3.57.85v5.73c5-.28,10.25-.77,15.1,0v-13.54ZM37.99,25h-14.05v12.75c0,1.27,4.81.41,5.97.4,2.6-.02,5.27.47,8.09-.14v-13.01ZM55.68,25h-13.01v13.54c4.27-1.35,8.72.25,13.01-.52v-13.01ZM71.82,25h-11.45v13.54c3.92-.32,7.75-.63,11.7-.52,1.23.03,2.64,1.14,3.68,0l-.29-6.26h-3.65s0-6.77,0-6.77ZM19.78,42.7H4.68v6.25s4.16,0,4.16,0v7.81h10.93v-14.06ZM37.99,42.7h-13.27l-.65.76.39,13.3h13.53v-14.06ZM55.68,42.7h-13.01v14.06h13.01v-14.06ZM75.46,42.7h-15.09v14.06h10.93l.07-6.96.78-.78,3.31-.07v-6.25ZM24.98,72.9v-7.81c-2.57,1.61-2.49-1.28-5.21-.52v-3.65s-6.24,0-6.24,0l-.02,3.87,3.67.82-.52,2.59h4.66s.58,4.65.58,4.65l3.08.04ZM37.99,60.92h-13.53c.2,2.9,1.88,3.96,4.68,3.64v8.33l4.71.24.46,3.69,3.67.23v-16.14ZM55.68,60.92h-13.01v16.14l4.14-.03.57-4.11,3.62-.03v-7.55c.77-1.12,3.59-1.16,4.43-.29l-.27,7.83h2.61s.48-3.94.48-3.94l5.23-.23.58-4.1,3.59-.06-.22-3.14-7.07-.51c.32,3.87.2,5.6-4.19,4.46l-.49-4.46Z"/>
  </g>
</svg>