<?xml version="1.0" encoding="UTF-8"?>
<svg id="Ebene_2" data-name="Ebene 2" xmlns="http://www.w3.org/2000/svg" viewBox="0 0 78.07 83.55">
  <g id="Ebene_1-2" data-name="Ebene 1">
    <g>
      <path d="M73.9,4.69c1.38.03,2.78-.03,4.17,0v7.29s-4.09.59-4.09.59l-.07,3.05h-2.09s0,67.93,0,67.93H6.77V15.62l-3.43-.49.09-2.08-.59-1.08-2.84.52v-7.81l4.16-.53V0h69.74c.02,1.56-.03,3.13,0,4.69-23.21-.54-46.52.4-69.74,0v7.29h69.74c-.03-2.42.05-4.87,0-7.29ZM67.13,16.14H11.45v64.03h17.17v-23.95h21.34v23.95h17.17V16.14ZM45.8,60.91h-13.01v19.26h13.01v-19.26Z"/>
      <path d="M24.46,56.22v7.81c-.38.14-.62-.52-.78-.52h-8.07v-7.29h8.85Z"/>
      <rect x="15.61" y="19.26" width="8.85" height="7.29"/>
      <rect x="41.11" y="19.26" width="8.85" height="7.29"/>
      <rect x="15.61" y="31.76" width="8.85" height="7.29"/>
      <rect x="41.11" y="31.76" width="8.85" height="7.29"/>
      <rect x="15.61" y="44.25" width="8.85" height="7.29"/>
      <rect x="41.11" y="44.25" width="8.85" height="7.29"/>
      <path d="M54.12,63.51v-7.29h7.55c1.26.92,1.05,7.02.28,7.59l-7.82-.3Z"/>
      <rect x="28.62" y="19.26" width="8.33" height="7.29"/>
      <rect x="54.12" y="19.26" width="8.33" height="7.29"/>
      <rect x="28.62" y="44.25" width="8.33" height="7.29"/>
      <rect x="54.12" y="44.25" width="8.33" height="7.29"/>
      <path d="M62.45,39.04h-8.33v-7.29h7.55c1.59,1.8.46,4.98.78,7.29Z"/>
      <rect x="28.62" y="32.28" width="8.33" height="6.77"/>
    </g>
  </g>
</svg>