<?xml version="1.0" encoding="UTF-8"?>
<svg id="Ebene_2" data-name="Ebene 2" xmlns="http://www.w3.org/2000/svg" viewBox="0 0 91.59 66.11">
  <g id="Ebene_1-2" data-name="Ebene 1">
    <path d="M62.97,0v11.45h5.21s0-5.21,0-5.21h12.49v5.21s6.77,0,6.77,0v4.17s4.16-.52,4.16-.52v51.02H0V15.62l4.62-.58-.33-2.83.72-.68,5.39-.07v-5.21s12.49,0,12.49,0v5.21h7.29V0h32.79ZM58.29,4.16h-23.94v7.81h23.42c.19-2.59-.51-5.37.52-7.81ZM86.91,16.14H4.16c-.14.38.52.62.52.78v7.81c0,.16-.66.4-.52.78h30.18v-4.69h23.42v4.69h14.05v-4.69s5.42,0,5.42,0l.3,4.69h9.37v-9.37ZM51.52,25.51h-10.15c-.32,0-.79.41-1.3,0v4.17s11.44,0,11.44,0v-4.16ZM32.27,30.19v17.18h3.65s0,4.69,0,4.69h4.17s0-4.16,0-4.16l-3.3-.09-.86-.7v-11.71h3.65s0-5.73,0-5.73l-7.28.52ZM60.37,47.37v-12.49h-4.17s0-4.69,0-4.69l-4.18.3v4.91s4.17,0,4.17,0l.53,11.96h3.64ZM56.21,47.37c-1.48-.02-2.36-.47-2.91,1.06l-1.25-.54v4.17s4.16,0,4.16,0v-4.69ZM51.52,52.58h-11.45v4.16h11.45v-4.16Z"/>
  </g>
</svg>